HIERARCHY
ROOT pelvis
{
  OFFSET 0 100 0
  CHANNELS 6 Xposition Yposition Zposition Zrotation Xrotation Yrotation
  JOINT pelvis_right_femur
  {
    OFFSET -10.78128 -3.44521 -0.5502486
    CHANNELS 3 Zrotation Xrotation Yrotation
    JOINT right_femur_tibia
    {
      OFFSET -0.8047443 -44.0398 -0.1307829
      CHANNELS 3 Zrotation Xrotation Yrotation
      JOINT right_tibia_foot
      {
        OFFSET 3.006224 -47.83518 -5
        CHANNELS 3 Zrotation Xrotation Yrotation
        End Site
        {
          OFFSET 0 -5 15
        }
      }
    }
  }
  JOINT pelvis_left_femur
  {
    OFFSET 10.78128 -3.44521 -0.5502486
    CHANNELS 3 Zrotation Xrotation Yrotation
    JOINT left_femur_tibia
    {
      OFFSET 0.8047443 -44.0398 -0.1307829
      CHANNELS 3 Zrotation Xrotation Yrotation
      JOINT left_tibia_foot
      {
        OFFSET -4.370144 -48.10324 -4.275266
        CHANNELS 3 Zrotation Xrotation Yrotation
        End Site
        {
          OFFSET 0 -5 15
        }
      }
    }
  }
  JOINT pelvis_spine1
  {
    OFFSET 0 6.468898 -3.129235
    CHANNELS 3 Zrotation Xrotation Yrotation
    JOINT spine1
    {
      OFFSET 0 23.15396 4.99043
      CHANNELS 3 Zrotation Xrotation Yrotation
      JOINT spine2
      {
        OFFSET 0 20.79997 -5.064912
        CHANNELS 3 Zrotation Xrotation Yrotation
        JOINT neck
        {
          OFFSET 0 14.38658 9.616178
          CHANNELS 3 Zrotation Xrotation Yrotation
          End Site
          {
            OFFSET 0 20 0
          }
        }
      }
      JOINT right_manubrium
      {
        OFFSET -5.722621 16.35077 3.967754
        CHANNELS 3 Zrotation Xrotation Yrotation
        JOINT right_clavicle
        {
          OFFSET -13.16364 1.694482 -4.693211
          CHANNELS 3 Zrotation Xrotation Yrotation
          JOINT right_humerus
          {
            OFFSET -28.5034 -0.3100689 -2.792744
            CHANNELS 3 Zrotation Xrotation Yrotation
            JOINT right_radius
            {
              OFFSET -25.15693 0.02248979 -1.271978
              CHANNELS 3 Zrotation Xrotation Yrotation
              End Site
              {
                OFFSET -15 0 0
              }
            }
          }
        }
      }
      JOINT left_manubrium
      {
        OFFSET 5.722621 16.35077 3.967754
        CHANNELS 3 Zrotation Xrotation Yrotation
        JOINT left_clavicle
        {
          OFFSET 13.16364 1.694482 -4.693211
          CHANNELS 3 Zrotation Xrotation Yrotation
          JOINT left_humerus
          {
            OFFSET 29.39168 -1.063119 -2.237045
            CHANNELS 3 Zrotation Xrotation Yrotation
            JOINT left_radius
            {
              OFFSET 24.59957 -0.9528479 0.9047498
              CHANNELS 3 Zrotation Xrotation Yrotation
              End Site
              {
                OFFSET 15 -0 -0
              }
            }
          }
        }
      }
    }
  }
}
MOTION
Frames: 23
Frame Time: 0.0416666666667
0 103.5113 0 0.9956041 -1.585133 0.03668949 3.446259 -16.09774 8.316488 -0 36.23374 -0 -5.845613 -15.66951 -4.101712 -6.751246 11.4906 -22.62894 -0 5.214867 -0 7.425254 -17.27353 25.38501 -2.371256 -3.182863 3.274162 4.086347 8.067714 -9.692073 1.178971 19.69938 7.424361 3.482432 -28.11545 9.794047 5.061335 -19.98161 12.23536 83.82034 30.41588 -17.37211 -0 0 19.42641 -10.22556 9.571406 3.981696 8.8464 -21.41981 3.530517 -94.53832 20.25733 20.98859 0 0 -6.37445 12.25217 20.09487 -4.550501
0.2108817 103.3091 1.64186 0.6590013 -0.8129214 0.05402031 3.86061 -19.43203 8.088138 -0 35.73933 -0 -5.972195 -14.51219 -3.799352 -6.653475 12.11016 -22.81344 -0 5.411568 -0 6.069991 -19.1099 25.10716 -2.328449 -3.174436 3.224528 4.041634 8.089719 -9.739929 1.152165 19.55247 7.675164 3.692068 -28.05056 9.895151 5.154185 -19.64351 12.16607 84.17341 30.67079 -18.0634 -0 0 18.79665 -10.16378 9.719843 3.946966 9.074564 -21.70897 3.392164 -94.0956 20.45698 20.17369 0 0 -7.934733 12.18744 19.49326 -4.237426
0.3965678 103.0085 3.484652 0.1346247 0.4870345 0.1005561 4.799847 -24.2205 8.064307 -0 33.39366 -0 -5.937799 -12.88945 -3.296637 -6.439394 12.40025 -22.38245 -0 5.4347 -0 6.235151 -20.45133 24.86315 -2.223233 -3.145604 3.199601 3.94214 8.23871 -9.75396 1.131366 19.22506 8.187248 4.133383 -27.79557 10.14685 5.682687 -18.77236 11.97778 84.89428 31.85728 -19.77238 -0 0 17.05421 -9.366225 10.02188 3.789264 9.520196 -22.29653 2.842907 -93.04162 21.05216 18.42234 0 0 -12.23215 12.42672 17.98927 -3.458993
0.590929 102.5492 5.690322 -0.3552148 1.361747 0.1946793 5.625305 -27.99663 7.635727 -0 30.04113 -0 -6.028065 -10.97944 -2.760205 -6.134495 12.68582 -21.39905 -0 5.684025 -0 6.542065 -21.28408 24.14615 -2.145496 -3.074733 3.197828 3.877154 8.370085 -9.750358 1.102478 19.07013 8.436259 4.340127 -27.62465 10.22735 5.843808 -18.3495 11.90004 85.42435 32.43043 -20.66583 -0 0 16.0437 -9.139442 10.21059 3.83289 9.67077 -22.60754 2.464972 -92.34919 21.22354 17.4515 0 0 -14.58946 12.52281 17.02249 -3.053334
0.8037509 101.9627 8.381753 -0.775211 2.370266 0.3665442 6.433754 -31.48978 7.198846 -0 25.90901 -0 -6.056784 -8.9502 -2.214716 -5.905584 13.05394 -20.15785 -0 6.322369 -0 6.998052 -21.85833 23.20875 -2.084418 -2.97838 3.182494 3.852703 8.483212 -9.747393 1.050759 18.91842 8.704424 4.540398 -27.49988 10.30682 6.001318 -17.94586 11.86927 85.88439 33.06628 -21.42675 -0 0 15.02756 -8.918726 10.40028 3.95368 9.785554 -22.87792 2.108012 -91.626 21.23183 16.49621 0 0 -16.87639 12.76928 16.04094 -2.867336
1.028477 101.2814 11.64233 -1.115204 3.209329 0.6418072 7.077058 -34.01579 6.598797 -0 21.71733 -0 -6.20738 -6.881301 -1.731456 -5.713548 13.60099 -18.77959 -0 7.670109 -0 6.981547 -22.1355 21.8752 -2.029562 -2.87147 3.169752 3.830005 8.588988 -9.741656 1.001151 18.8148 8.88977 4.671274 -27.39388 10.33417 6.045927 -17.66473 11.85335 86.30641 33.49769 -21.98076 -0 0 14.21436 -8.878813 10.55723 4.133801 9.815313 -23.0746 1.790585 -91.00587 21.16392 15.75706 0 0 -18.62646 12.90058 15.20973 -2.685925
1.25009 100.5798 15.53638 -1.420463 3.824122 1.038366 7.581413 -35.42947 5.871309 -0 17.96519 -0 -6.56329 -4.872683 -1.338907 -5.514808 14.3055 -17.35243 -0 10.02765 -0 6.190334 -22.0047 20.0614 -1.976717 -2.751109 3.160395 3.807863 8.6988 -9.729126 0.9515441 18.7384 9.031236 4.764851 -27.28984 10.33162 6.039528 -17.43593 11.84357 86.72059 33.85328 -22.44304 -0 0 13.465 -8.921071 10.69904 4.357329 9.788209 -23.23128 1.468421 -90.417 21.06054 15.11584 0 0 -20.16675 12.97558 14.42133 -2.483768
1.452423 99.95476 20.08133 -1.734638 4.043466 1.537947 7.975923 -35.4485 5.045428 -0 15.20987 -0 -7.224603 -3.130499 -1.073107 -5.231473 15.00297 -15.94311 -0 13.66811 -0 4.512781 -21.20568 17.77756 -1.919486 -2.622614 3.173341 3.765515 8.834482 -9.696014 0.914901 18.71013 9.093 4.804313 -27.15298 10.28441 5.984856 -17.26874 11.82383 87.14325 34.10462 -22.83339 -0 0 12.80395 -9.046056 10.81556 4.593722 9.686363 -23.33993 1.116158 -89.90032 20.99627 14.62827 0 0 -21.43466 12.92761 13.70283 -2.164081
1.625681 99.53202 25.23541 -2.088897 3.790614 2.077674 8.349272 -33.98129 4.269452 -0 13.83601 -0 -8.194872 -1.926979 -0.9672059 -4.79963 15.36609 -14.61936 -0 18.82027 -0 2.168247 -19.45513 15.22811 -1.854638 -2.482093 3.221496 3.693556 9.013326 -9.629352 0.8944195 18.7408 9.067123 4.787917 -26.95988 10.18843 5.899384 -17.15112 11.78992 87.58527 34.28335 -23.17563 -0 0 12.20245 -9.232146 10.90668 4.83293 9.497149 -23.39774 0.7041695 -89.4545 21.00713 14.29717 0 0 -22.47733 12.7522 13.02761 -1.690508
1.772805 99.444 30.882 -2.469132 3.06552 2.547371 8.740382 -31.10304 3.699117 -0 13.91055 -0 -9.361255 -1.528178 -1.042678 -4.201402 14.93133 -13.43593 -0 25.55459 -0 -0.3573633 -16.62564 12.78563 -1.781743 -2.327938 3.321193 3.581326 9.248846 -9.512958 0.8941662 18.84743 8.938146 4.708624 -26.68856 10.03659 5.794958 -17.08539 11.7402 88.03675 34.4016 -23.46 -0 0 11.67105 -9.470543 10.96734 5.06402 9.203397 -23.38988 0.2160612 -89.10586 21.12887 14.16254 0 0 -23.26088 12.43486 12.39635 -1.033419
1.911352 99.79558 36.83499 -2.794163 1.988028 2.818662 9.058502 -27.06764 3.410148 -0 15.02168 -0 -10.48606 -2.088116 -1.277993 -3.510276 13.19935 -12.40936 -0 33.67533 -0 -2.509298 -12.9234 10.83709 -1.705228 -2.156224 3.485842 3.423894 9.544165 -9.330218 0.9125743 19.04208 8.703659 4.565719 -26.32829 9.826511 5.683078 -17.07366 11.68058 88.46722 34.48734 -23.65084 -0 0 11.22312 -9.756246 10.99485 5.292918 8.791797 -23.29657 -0.3518099 -88.87663 21.37125 14.26138 0 0 -23.75772 11.98276 11.79997 -0.1980463
2.067365 100.6134 42.86985 -2.904478 0.7656624 2.802486 9.068457 -22.2382 3.320912 -0 16.27097 -0 -11.27091 -3.512561 -1.566293 -2.901279 9.812864 -11.49477 -0 42.54722 -0 -3.887739 -8.969193 9.624623 -1.63585 -1.966921 3.727294 3.220641 9.887729 -9.064251 0.9445107 19.33266 8.370616 4.363344 -25.88189 9.561007 5.574041 -17.12465 11.6222 88.81484 34.57545 -23.67624 -0 0 10.89873 -10.08753 10.98462 5.534459 8.257819 -23.0915 -0.9789989 -88.80376 21.72527 14.64702 0 0 -23.90838 11.41917 11.24448 0.7746603
2.25842 101.8038 48.77862 -2.610028 -0.4117377 2.509831 8.540316 -16.98051 3.233301 -0 16.61008 -0 -11.51431 -5.371041 -1.722262 -2.554305 4.774549 -10.60314 -0 50.95453 -0 -4.336657 -5.648069 9.223796 -1.589708 -1.768476 4.052613 2.974156 10.25033 -8.703626 0.9817512 19.71601 7.959263 4.114184 -25.36647 9.249408 5.47285 -17.2514 11.57741 88.99447 34.69825 -23.44197 -0 0 10.76364 -10.47357 10.93369 5.810543 7.617557 -22.75307 -1.615534 -88.93046 22.16229 15.37117 0 0 -23.64021 10.77884 10.75214 1.811735
2.47264 103.1453 54.42372 -1.844528 -1.513025 2.062845 7.518234 -11.5771 2.976558 -0 15.48837 -0 -11.30852 -7.020081 -1.608185 -2.436159 -1.398818 -9.627472 -0 57.0894 -0 -3.902708 -3.694314 9.633008 -1.58044 -1.583548 4.463896 2.681033 10.59273 -8.249352 1.018847 20.16896 7.497186 3.839223 -24.79826 8.904029 5.371443 -17.46922 11.54877 88.92929 34.84302 -22.87437 -0 0 10.90887 -10.95118 10.84825 6.13819 6.920924 -22.28264 -2.189736 -89.2944 22.65061 16.46063 0 0 -22.89595 10.07434 10.35725 2.856553
2.67388 104.3334 59.75952 -0.8566104 -2.654115 1.622581 6.468199 -6.22693 2.576103 -0 13.32096 -0 -11.02404 -8.11915 -1.307832 -2.132866 -7.813068 -8.431936 -0 58.93046 -0 -2.780769 -3.150846 10.78478 -1.607547 -1.443003 4.960398 2.324398 10.88323 -7.716162 1.057912 20.64143 7.010075 3.563306 -24.17156 8.533456 5.245249 -17.7904 11.52273 88.59263 34.91548 -21.97011 -0 0 11.42624 -11.59525 10.75234 6.528766 6.247989 -21.7127 -2.639897 -89.90344 23.16515 17.89372 0 0 -21.6944 9.263503 10.06922 3.932075
2.85601 105.0764 64.83224 -0.1345587 -3.83076 1.265695 5.952526 -1.122948 2.239576 -0 11.0615 -0 -10.8428 -9.071989 -1.06207 -1.091768 -13.65377 -6.878507 -0 55.24963 -0 -1.304626 -3.274374 12.40877 -1.657129 -1.367479 5.534023 1.892942 11.10113 -7.12552 1.102553 21.06871 6.522966 3.3073 -23.48225 8.147501 5.066036 -18.22024 11.48264 88.00819 34.80093 -20.78249 -0 0 12.35841 -12.46553 10.67276 6.999486 5.673002 -21.08326 -2.938821 -90.7226 23.66733 19.60778 0 0 -20.15923 8.300753 9.84736 5.096694
3.080696 105.2143 69.77956 0.02330174 -4.778376 0.9333612 6.051836 3.560346 2.112073 -0 9.321235 -0 -10.43196 -10.52612 -0.9740397 0.7541656 -18.47723 -5.015534 -0 46.7951 -0 0.07788349 -3.26216 14.04331 -1.716952 -1.3575 6.153681 1.414344 11.22434 -6.506576 1.147304 21.40175 6.070522 3.084303 -22.78161 7.771523 4.823962 -18.74725 11.42591 87.22385 34.48934 -19.37825 -0 0 13.64335 -13.52026 10.61139 7.564263 5.228968 -20.42349 -3.085564 -91.67541 24.08992 21.50193 0 0 -18.4821 7.241763 9.638479 6.307427
3.426742 104.7653 74.79046 -0.2510613 -5.283893 0.5316539 6.338456 7.777635 2.11817 -0 8.223923 -0 -9.441137 -12.51392 -0.9331696 2.788356 -22.07888 -3.211392 -0 36.16692 -0 0.9141993 -2.977333 15.35739 -1.779797 -1.402654 6.769299 0.942313 11.24235 -5.900042 1.183808 21.6232 5.683947 2.899725 -22.14924 7.436451 4.534868 -19.33533 11.3586 86.31477 34.05949 -17.85515 -0 0 15.1314 -14.6382 10.55458 8.201385 4.914375 -19.76692 -3.097848 -92.66493 24.38121 23.43571 0 0 -16.84719 6.210022 9.425286 7.44166
3.92598 103.8676 80.03232 -0.6317023 -5.433229 0.02357379 6.369455 11.57913 2.075318 -0 7.806711 -0 -8.007159 -14.47218 -0.8159951 4.231116 -24.38152 -1.965657 -0 26.17071 -0 0.9187976 -2.791368 16.34204 -1.835172 -1.487264 7.334915 0.5174833 11.17406 -5.347089 1.211688 21.73825 5.37225 2.751444 -21.62894 7.159004 4.223732 -19.93557 11.2839 85.38912 33.56637 -16.35558 -0 0 16.66128 -15.71024 10.49807 8.854693 4.714058 -19.15437 -3.015186 -93.6051 24.54186 25.26404 0 0 -15.38469 5.279303 9.211858 8.434137
4.557768 102.7061 85.6134 -0.8812413 -5.456652 -0.576363 5.969885 14.95976 1.881377 -0 8.238115 -0 -6.57676 -15.74324 -0.6119091 4.651468 -25.46847 -1.594608 -0 18.52317 -0 0.1073612 -3.041472 17.15338 -1.869595 -1.590037 7.818925 0.1582668 11.05811 -4.877342 1.237151 21.76333 5.126921 2.632093 -21.2249 6.942358 3.911237 -20.50244 11.2027 84.56429 33.01805 -15.02924 -0 0 18.10243 -16.66518 10.4475 9.459139 4.606344 -18.61884 -2.88893 -94.43788 24.60874 26.87497 0 0 -14.16935 4.455312 8.998249 9.299935
5.276079 101.4734 91.58417 -0.9123804 -5.518784 -1.219633 5.177685 17.80384 1.57737 -0 9.799264 -0 -5.526438 -15.84512 -0.3773185 4.054294 -25.53882 -2.100254 -0 13.71866 -0 -1.195486 -3.78265 17.91207 -1.872877 -1.688813 8.201932 -0.1292321 10.93511 -4.507291 1.267405 21.72181 4.933685 2.532615 -20.92654 6.784878 3.614049 -20.99969 11.1168 83.938 32.41717 -13.99605 -0 0 19.35631 -17.44885 10.40869 9.955051 4.565706 -18.18034 -2.766447 -95.13416 24.62888 28.20094 0 0 -13.23363 3.722311 8.785803 10.07772
6.034823 100.3557 97.94552 -0.727819 -5.67648 -1.829404 4.111257 19.9327 1.276891 -0 12.77567 -0 -5.009255 -14.50184 -0.1591445 2.692757 -24.78534 -3.262606 -0 11.49984 -0 -2.502012 -4.854106 18.65037 -1.841288 -1.766561 8.472105 -0.3432849 10.83812 -4.245217 1.307712 21.64064 4.779138 2.445167 -20.72311 6.684492 3.34784 -21.3992 11.02897 83.57633 31.78736 -13.33631 -0 0 20.34591 -18.01132 10.38369 10.29199 4.567195 -17.85189 -2.683005 -95.68339 24.64651 29.20738 0 0 -12.5855 3.074786 8.587827 10.79093
6.800924 99.52498 104.651 -0.3644365 -5.929899 -2.310607 2.905198 21.1492 1.070715 -0 17.35283 -0 -5.006934 -11.60826 0.02866139 0.8795902 -23.32287 -4.78331 -0 11.33525 -0 -3.355019 -6.030949 19.3471 -1.776643 -1.813551 8.621376 -0.4832533 10.79062 -4.097051 1.360647 21.54553 4.654012 2.365222 -20.60735 6.639533 3.128007 -21.6782 10.94199 83.51642 31.17181 -13.09787 -0 0 21.00729 -18.30913 10.37158 10.43057 4.591058 -17.6471 -2.660921 -96.07852 24.698 29.87215 0 0 -12.22686 2.524096 8.429309 11.43984
